{
	"asset":{
		"generator":"Khronos glTF Blender I/O v4.3.47",
		"version":"2.0"
	},
	"scene":0,
	"scenes":[
		{
			"name":"Scene",
			"nodes":[
				0
			]
		}
	],
	"nodes":[
		{
			"mesh":0,
			"name":"Brown Donkey",
			"translation":[
				0,
				0.5,
				0
			]
		}
	],
	"materials":[
		{
			"doubleSided":true,
			"name":"Brown Donkey",
			"pbrMetallicRoughness":{
				"baseColorTexture":{
					"index":0
				},
				"metallicFactor":0,
				"roughnessFactor":0.5
			}
		}
	],
	"meshes":[
		{
			"name":"Brown Donkey",
			"primitives":[
				{
					"attributes":{
						"POSITION":0,
						"NORMAL":1,
						"TEXCOORD_0":2,
						"TEXCOORD_1":3
					},
					"indices":4,
					"material":0
				}
			]
		}
	],
	"textures":[
		{
			"sampler":0,
			"source":0
		}
	],
	"images":[
		{
			"mimeType":"image/png",
			"name":"Brown Donkey",
			"uri":"Brown%20Donkey.png"
		}
	],
	"accessors":[
		{
			"bufferView":0,
			"componentType":5126,
			"count":4198,
			"max":[
				0.17666830122470856,
				0.6258522868156433,
				0.6840247511863708
			],
			"min":[
				-0.17667843401432037,
				-0.4999077022075653,
				-0.8024498820304871
			],
			"type":"VEC3"
		},
		{
			"bufferView":1,
			"componentType":5126,
			"count":4198,
			"type":"VEC3"
		},
		{
			"bufferView":2,
			"componentType":5126,
			"count":4198,
			"type":"VEC2"
		},
		{
			"bufferView":3,
			"componentType":5126,
			"count":4198,
			"type":"VEC2"
		},
		{
			"bufferView":4,
			"componentType":5123,
			"count":22956,
			"type":"SCALAR"
		}
	],
	"bufferViews":[
		{
			"buffer":0,
			"byteLength":50376,
			"byteOffset":0,
			"target":34962
		},
		{
			"buffer":0,
			"byteLength":50376,
			"byteOffset":50376,
			"target":34962
		},
		{
			"buffer":0,
			"byteLength":33584,
			"byteOffset":100752,
			"target":34962
		},
		{
			"buffer":0,
			"byteLength":33584,
			"byteOffset":134336,
			"target":34962
		},
		{
			"buffer":0,
			"byteLength":45912,
			"byteOffset":167920,
			"target":34963
		}
	],
	"samplers":[
		{
			"magFilter":9729,
			"minFilter":9987
		}
	],
	"buffers":[
		{
			"byteLength":213832,
			"uri":"Donkey2.bin"
		}
	]
}
